<svg width="262" height="262" viewBox="0 0 262 262" fill="none" xmlns="http://www.w3.org/2000/svg">
<g clip-path="url(#clip0_4_6)">
<path d="M-0.04 208.82H261.07V-2.13623e-06H-0.04V208.82Z" fill="#D10214"/>
<path d="M232.04 74.17C229.169 74.168 226.363 75.0176 223.975 76.6112C221.587 78.2048 219.726 80.4709 218.626 83.1226C217.527 85.7744 217.239 88.6927 217.798 91.5083C218.358 94.3239 219.74 96.9103 221.77 98.9401C223.8 100.97 226.386 102.352 229.202 102.912C232.017 103.471 234.936 103.183 237.587 102.084C240.239 100.984 242.505 99.1228 244.099 96.7351C245.692 94.3474 246.542 91.5407 246.54 88.67C246.532 84.8268 245.002 81.1433 242.284 78.4257C239.567 75.7081 235.883 74.1779 232.04 74.17ZM215.19 109.95C215.34 110.46 214.86 110.79 213.92 111.52L213.35 111.82L213.56 112.21C213.68 112.42 213.47 112.81 213.08 112.99L212.21 113.44C211.82 113.62 211.4 113.59 211.28 113.35L211.1 112.99L210.01 113.53L210.19 113.89C210.31 114.13 210.07 114.49 209.68 114.67L208.81 115.09C208.39 115.27 207.97 115.21 207.81 114.97L207.66 114.64C204.31 116.21 200.58 117.87 196.72 119.64L196.93 120.15C197.05 120.36 196.81 120.72 196.42 120.93L195.55 121.32C195.16 121.5 194.74 121.44 194.62 121.2L194.41 120.72L193.14 121.32L193.38 121.8C193.5 122.07 193.26 122.43 192.87 122.61L192 123C191.61 123.18 191.19 123.15 191.07 122.88L190.86 122.4C189.08 123.12 187.18 123.4 185.8 120.8C185.2 119.59 185.17 116.8 184.71 115.34C184.615 115.102 184.459 114.893 184.257 114.735C184.055 114.577 183.814 114.475 183.56 114.44C166.56 111.18 160.8 114.8 149.89 112.12C146.48 111.28 144.61 108.12 140.39 108.12C131.2 107.85 128.45 107.97 118.48 107.58C118.06 109.06 118 109.36 118 109.36L82.96 109.2L88.3 111.85L90.05 127.31C90.05 127.31 88.63 127.73 88.21 127.79C88.54 130.89 88.87 135.05 89.05 138.79C89.2 142.17 89.38 145.69 89.35 147.95C89.3921 149.332 89.0785 150.701 88.4394 151.927C87.8002 153.153 86.857 154.194 85.7 154.95C85.4 155.19 84.04 156.1 82.47 157.03C80.9 157.96 79.03 158.93 78.07 159.41C78.16 159.83 78.46 160.25 78.55 160.59C57.21 170.9 30.77 174.43 22.21 190.82C21.21 192.72 17.72 191.72 17.63 189.67C17.63 188.74 17.63 187.2 17.63 186.38H17.3C17.03 186.38 16.82 185.99 16.85 185.57V184.57C16.85 184.12 17.12 183.79 17.39 183.79H17.75C17.8663 182.846 18.0468 181.91 18.29 180.99L17.96 180.87C17.72 180.78 17.63 180.36 17.78 179.94L18.08 179.04C18.26 178.62 18.56 178.38 18.83 178.47L19.16 178.56C20.67 175 23.62 173.44 24.98 170.09L24.77 170C24.5 169.91 24.41 169.49 24.56 169.07L24.86 168.17C25.04 167.78 25.37 167.51 25.61 167.6L25.85 167.66C26.06 167.18 26.3 166.66 26.57 166.12L26.27 165.91C26.03 165.76 26.03 165.34 26.27 164.98L26.78 164.17C27.02 163.81 27.41 163.63 27.62 163.78L27.74 163.84H27.89C27.95 163.84 27.98 163.84 28.04 163.78C28.1824 163.632 28.3327 163.492 28.49 163.36C29.1439 162.882 29.9304 162.619 30.7404 162.608C31.5504 162.598 32.3437 162.839 33.01 163.3C34.34 164.11 39.58 167.1 44.61 162.55C52.93 155.1 62.67 144.95 69.99 144.61C67.99 140.3 64.56 131.35 64.17 128.03L61.7 127.52C60.43 124.78 57.3 112.06 56.42 102.52C56.42 102.52 55.42 92.21 56.42 88.59C55.85 88.53 54.82 89.37 54.52 89.37C53.19 86.08 57.52 58.37 61.84 50.24L68.44 47.62C67.75 47.53 62.98 47.32 50.44 46.29C43.44 52.47 35.34 59.16 31.24 62.81C30.55 63.32 29.37 67.27 29.37 67.27C29.37 67.27 27.29 69.11 25.37 70.44C22.81 72.25 16.6 73.61 15.27 71.5C14.94 70.99 15 70.75 15.27 70.44C16.27 69.44 19.85 67.7 21.09 65.44C19.09 66.44 16.9 67.44 15.15 67.31C14.4 67.31 14.03 65.41 15 65.08C17.62 63.96 19.73 63.48 21.27 61.28C22.81 59.08 24.59 57.78 27 57.72C27 57.72 38.67 42.5 45.54 35.26C47.44 33.26 50.97 33.93 50.97 33.93L51.57 31.61C51.57 31.61 75.14 28.81 86.11 32.45C85.96 25.76 88.96 16.96 99.36 16.96C104.73 16.96 112.62 21.69 113.68 27.45C114.01 29.23 112.99 30.45 112.44 32.63C111.51 36.04 112.8 39.77 112.44 40.95C112.14 41.95 111.02 41.85 110.09 43.18C109.254 44.4736 108.528 45.835 107.92 47.25L106.5 50.45L99.15 49.91C96.47 55.7 90.95 67.54 89.02 79.24C94.81 79.75 120.94 83.52 120.94 83.52L121.57 85.66C121.57 85.66 132.57 86.99 141.57 91.27C143.57 91.75 148.65 91 151.97 92.54C152.21 92.39 152.75 91.85 152.97 91.7C164.73 95.32 174.43 101.47 185.8 104.21C185.8 104.21 191.08 105.51 192.88 105.87C195.876 106.453 198.905 106.847 201.95 107.05C205.6 107.32 207.62 107.26 210.27 107.41C212.14 107.53 214.43 107.23 215.18 109.97" fill="white"/>
<path d="M247.48 237.38L243.41 250.07H251.49L247.48 237.38ZM252.91 255.13H241.91L239.91 261.01H232.91L242.91 232.95H251.91L261.91 261.01H254.86L252.91 255.13ZM230.02 244.76V260.01C226.883 261.019 223.605 261.518 220.31 261.49C210.54 261.49 205.96 257.15 205.96 246.93C205.96 236.71 210.54 232.4 220.31 232.4C223.464 232.339 226.602 232.872 229.56 233.97V239.4C226.755 238.441 223.814 237.941 220.85 237.92C214.97 237.92 213.13 240.3 213.13 246.92C213.13 253.85 215.06 256.14 220.61 256.14C221.841 256.138 223.07 256.058 224.29 255.9V249.63H219.08V244.76H230.02ZM193.96 232.95H200.96V261.01H193.96V232.95ZM170.54 232.95H177.54V255.68H189.6V261.02H170.55L170.54 232.95ZM144.92 259.95V254.49C147.939 255.503 151.105 256.014 154.29 256C157.52 256 158.93 255.16 158.93 253C158.93 251.1 158.33 250.56 155.73 250L151.06 249C146.21 248 144.58 246 144.58 241.22C144.58 235.07 148.2 232.42 155.49 232.42C158.556 232.379 161.605 232.891 164.49 233.93V239.42C161.748 238.457 158.866 237.957 155.96 237.94C152.49 237.94 151.32 238.84 151.32 241.04C151.32 242.85 152.13 243.36 154.39 243.84L158.91 244.84C164.22 245.99 165.66 247.76 165.66 252.77C165.66 258.77 161.95 261.54 154.39 261.54C151.174 261.556 147.98 261.015 144.95 259.94M120.87 232.94H140.52V238.31H127.84V244.22H138.36V249.5H127.84V255.68H140.77V261.02H120.85L120.87 232.94ZM103.15 255.67C107.25 255.67 108.61 253.53 108.61 246.96C108.61 240.39 107.25 238.31 103.15 238.31H97.84V255.67H103.15ZM90.82 232.94H103.36C113.19 232.94 115.75 236.94 115.75 246.94C115.75 256.65 112.95 260.94 103.36 260.94H90.79L90.82 232.94ZM85.06 232.94V261H76.53L64.57 240.76V261.05H58.06V232.95H66.59L78.5 253.27V232.95L85.06 232.94ZM27.79 251.87V232.95H34.79V251.66C34.79 254.76 36.21 255.94 40 255.94C43.79 255.94 45.18 254.76 45.18 251.66V232.95H52.18V251.88C52.18 258.48 48.35 261.53 39.97 261.53C31.59 261.53 27.76 258.53 27.76 251.88M16.37 252.69C16.37 250.1 15.37 249.01 12.96 249.01H6.66V256.27H12.96C15.46 256.27 16.37 255.21 16.37 252.68M6.66 244.68H12.54C14.89 244.68 15.95 243.68 15.95 241.24C15.95 238.8 14.95 237.71 12.54 237.71H6.66V244.68ZM23.18 253.36C23.18 258.36 20.86 261.02 14.53 261.02H-0.04V232.95H13.96C20.5 232.95 22.76 235.54 22.76 240.27C22.76 243.92 21.4 245.55 17.52 246.51L16.8 246.72L17.43 246.84C21.8 247.84 23.16 249.43 23.16 253.35" fill="white"/>
</g>
<defs>
<clipPath id="clip0_4_6">
<rect width="261.91" height="261.52" fill="white"/>
</clipPath>
</defs>
</svg>
