<?xml version="1.0" encoding="UTF-8"?><svg id="Calque_2" xmlns="http://www.w3.org/2000/svg" viewBox="0 0 2992.64 3776.33"><defs><style>.cls-1{fill:#085eff;}</style></defs><g id="Calque_3"><polygon class="cls-1" points="1207.19 344.27 2487.05 0 1945.82 1966.76 1622.84 1966.76 2035.76 444.71 1765.84 516.32 1281.71 2226.15 2006.09 2226.15 1920.08 2529.71 876.2 2529.71 1402.27 662.3 1093.79 662.3 1207.19 344.27"/><polygon class="cls-1" points="2992.64 2729.03 2992.64 3764.95 2825.04 3764.95 2825.04 2941.3 2683 2941.3 2709.19 2830.2 2992.64 2729.03"/><path class="cls-1" d="m162.16,3616.73v-867.37H0v1013.11h380.67l41.61-145.74H162.16Z"/><path class="cls-1" d="m493.62,2749.36v1013.11h156.83v-1013.11h-156.83Z"/><path class="cls-1" d="m1327.98,3199.25h-267.77l-34.11,128.31h147.96c.9,31.89,1.37,57.61,1.37,77.15,0,56.92-2.53,100.86-7.5,131.8-5.02,30.94-12.51,53.91-22.55,68.96-7.76,10.88-17.74,18.85-30.05,23.87-12.3,5.02-28.2,7.5-47.79,7.5h-26.93c-20.96,0-38.49-2.96-52.59-8.87-14.1-5.91-25.03-15.68-32.74-29.36-9.14-15.89-15.95-46.73-20.49-92.51-4.54-45.73-6.81-121.82-6.81-228.33v-43.72c0-106.51,2.27-182.49,6.81-228.01,4.54-45.52,11.35-76.25,20.49-92.2,14.52-25.93,42.98-38.92,85.33-38.92h15c20.01,0,36.07,2.54,48.16,7.55,12.04,5.02,21.91,12.94,29.68,23.87,8.66,11.88,14.47,26.98,17.43,45.41,2.96,18.43,4.44,43.35,4.44,74.77v55.6l151.39-88.4c0-34.59-2.75-64.05-8.18-88.39-5.49-24.34-15.05-48.37-28.67-72.03-37.81-65.11-105.61-97.64-203.46-97.64h-43.35c-44.62,0-84.33,8.77-119.13,26.3-34.8,17.53-61.36,42.19-79.52,74.08-20.07,34.59-34.16,77.78-42.35,129.69-8.18,51.91-12.3,127.21-12.3,226v128.32c0,66.9,1.85,122.35,5.49,166.23,3.64,43.93,9.29,80.69,17.06,110.26,7.71,29.62,18.43,56.03,32.1,79.21,18.17,31.89,44.73,56.55,79.52,74.08,34.8,17.53,74.51,26.3,119.13,26.3h44.73c44.14,0,83.85-8.18,119.13-24.61,35.27-16.37,68.65-42.3,89.56-77.83,31-54.12,51.75-135.18,51.75-243.01,0-94.68-.21-170.88-.21-231.44Z"/><path class="cls-1" d="m1972.93,2749.36v1013.11h-156.35c-.16.05-5.6.11-5.76.16v-151.87l-82.48,153.13c-34.9,12.25-175.73,27.88-227.27-21.28-41.61-39.71-68.49-87.66-68.49-243.64v-749.61h162.16v765.45c0,30.05,0,48.79,6.6,65.9,6.6,17.06,17.64,29.2,33.11,36.49s36.86,10.93,64.21,10.93h6.97c59.75,0,105.19-33.85,105.19-33.85v-844.92h162.11Z"/><path class="cls-1" d="m2262.04,3622.01v-320.52h168.02l36.33-145.74h-204.35v-265.92h258.11l-36.33-140.46h-382.52v1013.11h396.14l36.33-140.46h-271.73Z"/></g></svg>