<svg width="591" height="249" viewBox="0 0 591 249" fill="none" xmlns="http://www.w3.org/2000/svg">
<g clip-path="url(#clip0_6_7)">
<path d="M232.621 124.177V41.7613H258.74C275.749 41.7613 288.507 51.8854 288.507 69.3014C288.507 86.916 275.951 97.2453 258.74 97.2453H248.616V124.177H232.621ZM248.616 81.8573H257.932C266.035 81.8573 271.904 77.404 271.904 69.3014C271.904 61.196 266.035 56.948 257.932 56.948H248.616V81.8573ZM503.147 214.687C491.2 214.687 476.625 208.209 476.625 187.96V159.001H491.604V186.945C491.604 196.259 495.861 200.308 503.147 200.308C509.828 200.308 514.691 195.653 514.691 186.945V159.001H529.675V187.96C529.675 208.209 514.892 214.687 503.147 214.687ZM374.16 214.687C359.784 214.687 347.231 201.525 347.231 186.137C347.231 170.951 359.784 158.194 374.16 158.194C382.261 158.194 387.725 161.025 390.967 166.088L392.588 159.001H405.749V213.268H392.588L390.967 206.38C387.725 211.247 381.653 214.687 374.16 214.687ZM377.197 171.764C369.095 171.764 363.025 177.836 363.025 186.137C363.025 194.035 369.095 200.312 377.197 200.312C385.095 200.312 391.169 194.035 391.169 186.137C391.169 177.836 385.095 171.764 377.197 171.764ZM475.408 69.908H490.389V124.172H475.408V69.908ZM483.1 62.6214C477.836 62.6214 473.787 58.568 473.787 53.5067C473.787 48.2427 477.836 44.1933 483.1 44.1933C488.364 44.1933 492.415 48.24 492.415 53.5067C492.415 58.5653 488.364 62.6214 483.1 62.6214ZM452.929 92.1813C452.929 86.308 449.691 82.6627 444.625 82.6627C438.756 82.6627 435.719 86.308 435.719 92.3854V124.175H420.733V92.1813C420.733 86.308 417.495 82.6627 412.432 82.6627C406.56 82.6627 403.523 86.308 403.523 92.3854V124.175H388.539V69.908H401.7L403.324 76.9947C403.324 76.9947 406.563 68.4907 416.687 68.4907C422.969 68.4907 428.231 71.1213 431.876 76.5933L432.283 77.1987L432.689 76.5933C437.957 69.1 444.435 68.4907 448.485 68.4907C460.025 68.4907 467.923 77.1987 467.923 89.5507V124.177H452.939V92.1813H452.929ZM557.619 124.177V69.908H570.576L572.197 77.8053C574.628 72.74 579.485 69.3014 585.967 69.3014C587.387 69.3014 588.8 69.5013 590.221 69.908V84.2827C588.396 83.88 586.78 83.6747 584.955 83.6747C577.665 83.6747 572.607 88.1307 572.607 96.836V124.175H557.619V124.177ZM293.569 124.177V69.908H306.529L308.152 77.8053C310.579 72.74 315.436 69.3014 321.92 69.3014C323.336 69.3014 324.752 69.5013 326.172 69.908V84.2827C324.345 83.88 322.733 83.6747 320.908 83.6747C313.619 83.6747 308.556 88.1307 308.556 96.836V124.175H293.569V124.177ZM232.621 213.271V132.883H248.616V198.084H283.445V213.271H232.621ZM315.843 214.687C299.037 214.687 286.684 203.147 286.684 186.339C286.684 171.151 297.817 157.585 315.433 157.585C328.597 157.585 342.165 167.504 342.165 185.932C342.165 187.349 342.165 189.175 341.761 191.196H302.069C303.488 197.271 308.96 201.321 315.64 201.321C321.712 201.321 326.368 199.095 330.221 195.044L339.331 204.359C333.46 211.044 324.957 214.687 315.843 214.687ZM315.032 170.749C308.752 170.749 303.492 174.395 302.275 180.268H327.383C326.172 174.597 321.109 170.749 315.032 170.749ZM564.097 214.687C547.287 214.687 534.939 203.147 534.939 186.339C534.939 171.151 546.076 157.585 563.693 157.585C576.855 157.585 590.427 167.504 590.427 185.932C590.427 187.349 590.427 189.175 590.013 191.197H550.331C551.747 197.271 557.215 201.321 563.896 201.321C569.971 201.321 574.628 199.095 578.476 195.044L587.585 204.359C581.712 211.044 573.212 214.687 564.097 214.687ZM563.287 170.749C557.011 170.749 551.747 174.395 550.532 180.268H575.641C574.424 174.597 569.361 170.749 563.287 170.749ZM525.424 125.594C508.619 125.594 496.265 114.053 496.265 97.2453C496.265 82.056 507.401 68.4907 525.02 68.4907C538.181 68.4907 551.749 78.4107 551.749 96.8387C551.749 98.256 551.749 100.081 551.345 102.104H511.653C513.075 108.177 518.541 112.233 525.221 112.233C531.293 112.233 535.952 110.004 539.803 105.951L548.911 115.265C543.039 121.948 534.532 125.594 525.424 125.594ZM524.609 81.652C518.333 81.652 513.072 85.2987 511.852 91.1707H536.961C535.749 85.5 530.684 81.652 524.609 81.652ZM356.343 125.594C339.537 125.594 327.184 114.053 327.184 97.2453C327.184 82.056 338.32 68.4907 355.939 68.4907C369.1 68.4907 382.668 78.4107 382.668 96.8387C382.668 98.256 382.668 100.081 382.264 102.104H342.575C343.988 108.177 349.46 112.233 356.14 112.233C362.215 112.233 366.873 110.004 370.721 105.951L379.833 115.265C373.963 121.948 365.457 125.594 356.343 125.594ZM355.532 81.652C349.252 81.652 343.985 85.2987 342.775 91.1707H367.88C366.668 85.5 361.609 81.652 355.532 81.652ZM441.187 171.764C433.292 171.764 427.011 177.836 427.011 186.137C427.011 194.035 433.292 200.312 441.187 200.312C449.081 200.312 455.359 194.035 455.359 186.137C455.359 177.836 449.081 171.764 441.187 171.764ZM454.545 165.889L456.169 159.004H469.331V210.845C469.331 220.969 466.497 228.056 459.815 233.32C454.756 237.168 447.864 240.001 439.567 240.001C428.224 240.001 420.125 236.153 413.647 229.876L421.951 218.333C426.001 222.182 431.467 225.625 438.553 225.625C449.691 225.625 454.548 220.156 454.548 212.057V208.209C450.097 212.866 444.833 214.687 438.96 214.687C423.569 214.687 411.42 202.132 411.42 186.137C411.42 170.34 423.976 158.194 439.364 158.194C445.64 158.196 451.308 161.231 454.545 165.889Z" fill="white"/>
<path d="M39.4932 20.7681C50.7631 25.8054 58 32.1614 59.3197 33.1308C58.7229 30.2908 56.5021 16.6201 55.2245 8.12944C61.7917 12.5734 77.0307 22.8934 82.0473 26.2441C84.0901 20.1041 91.1697 0.0481095 91.1697 0.0481095C91.1697 0.0481095 103.969 20.2574 106.158 23.5374C108.829 20.8094 124.12 4.20677 128.079 0.00676836C128.739 9.5601 129.64 23.2201 129.87 25.2748C130.634 24.2628 136.489 16.2521 146.303 8.87477C142.051 17.0494 140.019 28.3294 139.119 37.3921C129.461 34.7654 119.271 33.3561 108.776 33.3561C88.6145 33.3561 69.6781 38.5254 53.3079 47.6094C50.3333 38.8534 45.6724 27.9614 39.4932 20.7681ZM193.835 193.094L184.953 183.5C182.419 209.432 169.4 231.449 145.489 246.807L141.833 232.819C121.536 247.123 86.7005 256.4 56.7776 239.889C60.4959 221.396 63.7948 202.657 56.7145 180.22C40.1453 205.252 25.4823 215.061 25.4823 215.061C14.286 196.721 15.2917 159.928 18.6323 149.099L0 154.728C0 142.366 9.1224 116.137 22.3401 101.404L10.7042 99.5854H10.6927C18.6 83.8201 30.4036 70.2308 44.8469 60.0228L44.8672 60.0121C40.5312 66.6948 40.4683 83.1854 53.1729 89.4588C47.7787 80.2321 47.1297 68.8294 52.764 62.9241C58.3989 56.9668 67.8776 59.0108 73.9312 63.6294C72.1303 58.4788 66.8516 52.0014 58.9437 51.5628H58.9323C73.8677 44.0628 90.8245 39.8428 108.766 39.8428C112.117 39.8428 115.458 39.9854 118.726 40.2721C123.942 42.3161 131.598 49.4881 135.169 53.9534C135.169 53.9534 135.421 48.6908 132.425 42.3361C151.855 46.9534 161.123 54.6681 165.009 58.3868C165.805 66.5814 168.319 71.4961 171.639 79.2814C165.344 72.4054 149.529 61.3094 141.977 58.6534C141.977 58.6534 141.36 65.7534 138.763 69.1668C123.722 58.5814 116.338 55.9148 116.338 55.9148C99.8317 58.2241 89.2115 64.4361 83.4407 69.3201L88.4677 73.4988C78.5177 76.4828 72.0557 84.8201 72.0557 84.8201C72.1292 84.9734 80.9479 86.1988 80.9479 86.1988C80.9479 86.1988 80.0469 96.3041 93.0136 102.639C104.126 108.064 120.098 101.331 135.139 107.216C125.251 96.0788 118.412 91.1041 118.412 91.1041C118.412 91.1041 114.484 90.3068 111.719 90.3268C108.263 90.3468 103.11 91.0108 97.4645 88.8654C94.7625 87.8334 91.6099 86.0148 89.138 84.5028C89.138 84.5028 96.0823 77.5441 106.231 76.0121C106.231 76.0121 115.385 78.5254 122.633 83.7574C127.451 79.1801 132.478 79.3228 132.478 79.3228C132.478 79.3228 127.493 83.8588 129.001 89.3561C136.237 95.6494 144.093 104.661 144.093 104.661C152.095 100.391 169.492 101.372 173.063 105.417C168.539 99.6854 162.013 94.9041 156.965 90.8174C156.348 88.6721 150.839 81.1921 149.907 80.4974C149.907 80.4974 155.143 82.0708 159.824 86.1681C161.165 84.2988 163.679 82.3988 167.104 81.5601C170.623 84.4414 171.251 88.8654 171.157 89.6014C169.576 91.4508 168.004 92.2068 168.004 92.2068L176.488 101.167L177.336 94.7401C196.88 121.97 207.532 153.48 193.832 193.092M157.02 134.508L157 120.438C157 120.438 150.559 118.426 143.688 113.225C129.883 115.259 113.168 128.807 113.168 128.807C113.168 128.807 118.813 139.259 124.992 150.539C135.853 152.02 151.857 138.636 157.02 134.508ZM170.908 160.011C170.908 160.011 169.797 154.187 165.075 148.751L154.296 149.007C154.296 149.007 139.769 161.185 130.909 161.471C130.909 161.471 135.789 170.33 138.261 174.959C143.132 173.916 151.709 170.166 155.165 166.243C155.165 166.243 157.449 173.425 157.02 181.906C161.869 179.168 168.551 171.73 170.908 160.011ZM175.328 113.787C169.892 118.242 165.284 120.724 165.284 120.724L165.347 134.845C169.232 139.075 173.065 142.578 175.935 148.966C181.381 139.401 180.335 125.343 175.328 113.787Z" fill="white"/>
</g>
<defs>
<clipPath id="clip0_6_7">
<rect width="590.427" height="248.68" fill="white"/>
</clipPath>
</defs>
</svg>
