<svg width="141" height="206" viewBox="0 0 141 206" fill="none" xmlns="http://www.w3.org/2000/svg">
<g clip-path="url(#clip0_4_25)">
<path d="M2.07 126L70.4 168.6L43.48 126H2.07Z" fill="url(#paint0_linear_4_25)"/>
<path d="M96.72 126L70.4 168.6L138.13 126H96.72Z" fill="url(#paint1_linear_4_25)"/>
<path d="M43.48 126L70.4 168.6V126H43.48Z" fill="url(#paint2_linear_4_25)"/>
<path d="M70.1 52.35L43.48 126H70.4L70.1 52.35Z" fill="url(#paint3_linear_4_25)"/>
<path d="M70.1 52.35L70.4 126H96.72L70.1 52.35Z" fill="url(#paint4_linear_4_25)"/>
<path d="M70.4 126V168.6L96.72 126H70.4Z" fill="url(#paint5_linear_4_25)"/>
<path d="M138.09 126L83.96 0H55.86L2.09 126H43.5L70.09 52.35L82.51 86.66H70.09L62.99 107.96H90.21L96.72 125.96L138.09 126Z" fill="#008FD7"/>
<path d="M10.59 205.5C8.56609 205.501 6.55809 205.143 4.66001 204.44C2.99346 203.883 1.46339 202.98 0.169987 201.79C0.12428 201.747 0.087857 201.695 0.0629614 201.637C0.0380658 201.58 0.0252417 201.518 0.0252417 201.455C0.0252417 201.392 0.0380658 201.33 0.0629614 201.273C0.087857 201.215 0.12428 201.163 0.169987 201.12L3.16999 197.66C3.32999 197.45 3.52001 197.44 3.76001 197.66C5.7269 199.38 8.22858 200.366 10.84 200.45C11.9868 200.515 13.1236 200.206 14.08 199.57C14.4514 199.305 14.7523 198.954 14.9563 198.546C15.1602 198.138 15.2611 197.686 15.25 197.23C15.2687 196.846 15.1938 196.464 15.0318 196.115C14.8698 195.767 14.6255 195.463 14.32 195.23C13.336 194.641 12.2246 194.298 11.08 194.23L9.65 194.03C3.94333 193.177 1.09 190.453 1.09 185.86C1.04929 184.728 1.26261 183.602 1.71427 182.564C2.16592 181.526 2.84443 180.602 3.69999 179.86C5.67333 178.267 8.1674 177.461 10.7 177.6C13.9937 177.476 17.2325 178.47 19.89 180.42C19.9425 180.446 19.9879 180.485 20.0221 180.533C20.0563 180.58 20.0783 180.636 20.0862 180.694C20.094 180.752 20.0876 180.811 20.0673 180.866C20.0471 180.921 20.0137 180.971 19.97 181.01L17.55 184.63C17.5249 184.679 17.4894 184.721 17.4459 184.755C17.4024 184.788 17.352 184.811 17.2984 184.823C17.2449 184.834 17.1894 184.834 17.1361 184.821C17.0827 184.809 17.0328 184.784 16.99 184.75C15.1437 183.462 12.9605 182.742 10.71 182.68C9.747 182.621 8.79521 182.912 8.03 183.5C7.7256 183.763 7.48404 184.091 7.32309 184.459C7.16215 184.828 7.08592 185.228 7.10001 185.63C7.09554 186.009 7.1844 186.383 7.3588 186.72C7.5332 187.057 7.78776 187.345 8.10001 187.56C9.08041 188.166 10.1911 188.529 11.34 188.62L12.77 188.82C18.4433 189.587 21.28 192.317 21.28 197.01C21.321 198.181 21.0937 199.346 20.6153 200.415C20.1369 201.484 19.4202 202.43 18.52 203.18C16.67 204.74 14.06 205.52 10.66 205.52L10.59 205.5Z" fill="white"/>
<path d="M25.23 204.66V178.41C25.2215 178.356 25.2259 178.3 25.243 178.247C25.2601 178.195 25.2893 178.147 25.3283 178.108C25.3673 178.069 25.4149 178.04 25.4673 178.023C25.5198 178.006 25.5755 178.001 25.63 178.01H42.97C43.0245 178.001 43.0802 178.006 43.1326 178.023C43.1851 178.04 43.2327 178.069 43.2717 178.108C43.3107 178.147 43.3399 178.195 43.357 178.247C43.3741 178.3 43.3785 178.356 43.37 178.41V182.66C43.3785 182.714 43.3741 182.77 43.357 182.823C43.3399 182.875 43.3107 182.923 43.2717 182.962C43.2327 183.001 43.1851 183.03 43.1326 183.047C43.0802 183.064 43.0245 183.069 42.97 183.06H31.32C31.2873 183.055 31.2539 183.058 31.2224 183.068C31.1909 183.078 31.1624 183.096 31.139 183.119C31.1156 183.142 31.098 183.171 31.0878 183.202C31.0775 183.234 31.0749 183.267 31.08 183.3V188.67C31.0749 188.703 31.0775 188.736 31.0878 188.768C31.098 188.799 31.1156 188.828 31.139 188.851C31.1624 188.874 31.1909 188.892 31.2224 188.902C31.2539 188.912 31.2873 188.915 31.32 188.91H41.02C41.0745 188.901 41.1302 188.906 41.1826 188.923C41.235 188.94 41.2827 188.969 41.3217 189.008C41.3607 189.047 41.3899 189.095 41.407 189.147C41.4241 189.2 41.4285 189.256 41.42 189.31V193.53C41.4285 193.585 41.4241 193.64 41.407 193.693C41.3899 193.745 41.3607 193.793 41.3217 193.832C41.2827 193.871 41.235 193.9 41.1826 193.917C41.1302 193.934 41.0745 193.939 41.02 193.93H31.32C31.2873 193.925 31.2539 193.928 31.2224 193.938C31.1909 193.948 31.1624 193.966 31.139 193.989C31.1156 194.012 31.098 194.041 31.0878 194.072C31.0775 194.104 31.0749 194.137 31.08 194.17V199.75C31.0749 199.783 31.0775 199.816 31.0878 199.848C31.098 199.879 31.1156 199.908 31.139 199.931C31.1624 199.954 31.1909 199.972 31.2224 199.982C31.2539 199.992 31.2873 199.995 31.32 199.99H42.98C43.0345 199.981 43.0902 199.986 43.1426 200.003C43.1951 200.02 43.2427 200.049 43.2817 200.088C43.3207 200.127 43.3499 200.175 43.367 200.227C43.3841 200.28 43.3885 200.336 43.38 200.39V204.64C43.3885 204.695 43.3841 204.75 43.367 204.803C43.3499 204.855 43.3207 204.903 43.2817 204.942C43.2427 204.981 43.1951 205.01 43.1426 205.027C43.0902 205.044 43.0345 205.049 42.98 205.04H25.63C25.5755 205.049 25.5198 205.044 25.4673 205.027C25.4149 205.01 25.3673 204.981 25.3283 204.942C25.2893 204.903 25.2601 204.855 25.243 204.803C25.2259 204.75 25.2215 204.695 25.23 204.64V204.66Z" fill="white"/>
<path d="M68.95 205.06H63.3C63.1711 205.069 63.0432 205.034 62.9363 204.961C62.8294 204.889 62.7498 204.783 62.71 204.66L58.09 194.75H54.47C54.4373 194.745 54.4039 194.748 54.3724 194.758C54.3409 194.768 54.3124 194.786 54.289 194.809C54.2656 194.832 54.248 194.861 54.2378 194.892C54.2275 194.924 54.2249 194.957 54.23 194.99V204.66C54.2385 204.714 54.2341 204.77 54.217 204.823C54.1999 204.875 54.1707 204.923 54.1317 204.962C54.0927 205.001 54.0451 205.03 53.9926 205.047C53.9402 205.064 53.8845 205.069 53.83 205.06H48.78C48.7255 205.069 48.6698 205.064 48.6174 205.047C48.5649 205.03 48.5173 205.001 48.4783 204.962C48.4393 204.923 48.41 204.875 48.393 204.823C48.3759 204.77 48.3715 204.714 48.38 204.66V178.41C48.3715 178.356 48.3759 178.3 48.393 178.247C48.41 178.195 48.4393 178.147 48.4783 178.108C48.5173 178.069 48.5649 178.04 48.6174 178.023C48.6698 178.006 48.7255 178.001 48.78 178.01H59.56C61.9977 177.897 64.3846 178.732 66.22 180.34C67.0543 181.108 67.7124 182.047 68.1491 183.093C68.5859 184.139 68.7909 185.267 68.75 186.4C68.7816 188.008 68.34 189.591 67.48 190.95C66.6274 192.282 65.394 193.327 63.94 193.95L69.27 204.61C69.2954 204.659 69.3087 204.714 69.3087 204.77C69.3087 204.826 69.2954 204.881 69.27 204.93C69.2356 204.981 69.1868 205.021 69.1298 205.044C69.0728 205.067 69.0102 205.073 68.95 205.06ZM59.21 189.75C60.1807 189.8 61.1333 189.474 61.87 188.84C62.5059 188.185 62.8617 187.308 62.8617 186.395C62.8617 185.482 62.5059 184.605 61.87 183.95C61.1328 183.317 60.1805 182.991 59.21 183.04H54.43C54.3973 183.035 54.3639 183.038 54.3324 183.048C54.301 183.058 54.2724 183.076 54.249 183.099C54.2256 183.122 54.208 183.151 54.1978 183.182C54.1875 183.214 54.1849 183.247 54.19 183.28V189.52C54.1849 189.553 54.1875 189.586 54.1978 189.618C54.208 189.649 54.2256 189.678 54.249 189.701C54.2724 189.724 54.301 189.742 54.3324 189.752C54.3639 189.762 54.3973 189.765 54.43 189.76H59.21V189.75Z" fill="white"/>
<path d="M73.39 204.66V178.41C73.3815 178.356 73.3859 178.3 73.403 178.247C73.4201 178.195 73.4493 178.147 73.4883 178.108C73.5273 178.069 73.5749 178.04 73.6274 178.023C73.6798 178.006 73.7355 178.001 73.79 178.01H78.84C78.8945 178.001 78.9502 178.006 79.0027 178.023C79.0551 178.04 79.1027 178.069 79.1417 178.108C79.1807 178.147 79.21 178.195 79.227 178.247C79.2441 178.3 79.2486 178.356 79.24 178.41V204.66C79.2486 204.714 79.2441 204.77 79.227 204.823C79.21 204.875 79.1807 204.923 79.1417 204.962C79.1027 205.001 79.0551 205.03 79.0027 205.047C78.9502 205.064 78.8945 205.069 78.84 205.06H73.79C73.7355 205.069 73.6798 205.064 73.6274 205.047C73.5749 205.03 73.5273 205.001 73.4883 204.962C73.4493 204.923 73.4201 204.875 73.403 204.823C73.3859 204.77 73.3815 204.714 73.39 204.66Z" fill="white"/>
<path d="M85.03 204.66V178.41C85.0215 178.356 85.0259 178.3 85.043 178.247C85.0601 178.195 85.0893 178.147 85.1283 178.108C85.1673 178.069 85.2149 178.04 85.2674 178.023C85.3198 178.006 85.3756 178.001 85.43 178.01H102.77C102.824 178.001 102.88 178.006 102.933 178.023C102.985 178.04 103.033 178.069 103.072 178.108C103.111 178.147 103.14 178.195 103.157 178.247C103.174 178.3 103.179 178.356 103.17 178.41V182.66C103.179 182.714 103.174 182.77 103.157 182.823C103.14 182.875 103.111 182.923 103.072 182.962C103.033 183.001 102.985 183.03 102.933 183.047C102.88 183.064 102.824 183.069 102.77 183.06H91.09C91.0573 183.055 91.0239 183.058 90.9924 183.068C90.961 183.078 90.9324 183.096 90.909 183.119C90.8856 183.142 90.8681 183.171 90.8578 183.202C90.8476 183.234 90.8449 183.267 90.85 183.3V188.67C90.8449 188.703 90.8476 188.736 90.8578 188.768C90.8681 188.799 90.8856 188.828 90.909 188.851C90.9324 188.874 90.961 188.892 90.9924 188.902C91.0239 188.912 91.0573 188.915 91.09 188.91H100.79C100.844 188.901 100.9 188.906 100.953 188.923C101.005 188.94 101.053 188.969 101.092 189.008C101.131 189.047 101.16 189.095 101.177 189.147C101.194 189.2 101.199 189.256 101.19 189.31V193.53C101.199 193.585 101.194 193.64 101.177 193.693C101.16 193.745 101.131 193.793 101.092 193.832C101.053 193.871 101.005 193.9 100.953 193.917C100.9 193.934 100.844 193.939 100.79 193.93H91.09C91.0573 193.925 91.0239 193.928 90.9924 193.938C90.961 193.948 90.9324 193.966 90.909 193.989C90.8856 194.012 90.8681 194.041 90.8578 194.072C90.8476 194.104 90.8449 194.137 90.85 194.17V199.75C90.8449 199.783 90.8476 199.816 90.8578 199.848C90.8681 199.879 90.8856 199.908 90.909 199.931C90.9324 199.954 90.961 199.972 90.9924 199.982C91.0239 199.992 91.0573 199.995 91.09 199.99H102.75C102.804 199.981 102.86 199.986 102.913 200.003C102.965 200.02 103.013 200.049 103.052 200.088C103.091 200.127 103.12 200.175 103.137 200.227C103.154 200.28 103.159 200.336 103.15 200.39V204.64C103.159 204.695 103.154 204.75 103.137 204.803C103.12 204.855 103.091 204.903 103.052 204.942C103.013 204.981 102.965 205.01 102.913 205.027C102.86 205.044 102.804 205.049 102.75 205.04H85.43C85.3756 205.049 85.3198 205.044 85.2674 205.027C85.2149 205.01 85.1673 204.981 85.1283 204.942C85.0893 204.903 85.0601 204.855 85.043 204.803C85.0259 204.75 85.0215 204.695 85.03 204.64V204.66Z" fill="white"/>
<path d="M115.65 204.66L124.96 178.41C124.984 178.294 125.048 178.189 125.141 178.116C125.235 178.043 125.351 178.005 125.47 178.01H130.47C130.589 178.003 130.707 178.04 130.801 178.114C130.894 178.187 130.958 178.293 130.98 178.41L140.13 204.66C140.21 204.93 140.13 205.06 139.86 205.06H134.69C134.571 205.067 134.453 205.03 134.359 204.956C134.265 204.883 134.202 204.777 134.18 204.66L132.63 199.93H123.17L121.66 204.66C121.636 204.776 121.572 204.881 121.479 204.954C121.385 205.027 121.269 205.065 121.15 205.06H115.94C115.67 205.06 115.58 204.93 115.66 204.66H115.65ZM124.8 194.96H131.09L128.03 185.5H127.91L124.8 194.96Z" fill="white"/>
</g>
<defs>
<linearGradient id="paint0_linear_4_25" x1="1.67" y1="113.689" x2="69.7595" y2="153.001" gradientUnits="userSpaceOnUse">
<stop stop-color="#147AD1"/>
<stop offset="1" stop-color="#002D71"/>
</linearGradient>
<linearGradient id="paint1_linear_4_25" x1="123.563" y1="111.787" x2="59.5976" y2="156.576" gradientUnits="userSpaceOnUse">
<stop stop-color="#147AD1"/>
<stop offset="1" stop-color="#002D71"/>
</linearGradient>
<linearGradient id="paint2_linear_4_25" x1="50.0342" y1="142.595" x2="89.5208" y2="119.798" gradientUnits="userSpaceOnUse">
<stop stop-color="#147AD1"/>
<stop offset="1" stop-color="#002D71"/>
</linearGradient>
<linearGradient id="paint3_linear_4_25" x1="76.5662" y1="103.397" x2="42.5624" y2="79.5867" gradientUnits="userSpaceOnUse">
<stop stop-color="#147AD1"/>
<stop offset="1" stop-color="#002D71"/>
</linearGradient>
<linearGradient id="paint4_linear_4_25" x1="56.6276" y1="78.0495" x2="105.613" y2="127.035" gradientUnits="userSpaceOnUse">
<stop stop-color="#147AD1"/>
<stop offset="1" stop-color="#002D71"/>
</linearGradient>
<linearGradient id="paint5_linear_4_25" x1="91.0724" y1="123.172" x2="54.2579" y2="148.951" gradientUnits="userSpaceOnUse">
<stop stop-color="#147AD1"/>
<stop offset="1" stop-color="#002D71"/>
</linearGradient>
<clipPath id="clip0_4_25">
<rect width="140.17" height="205.5" fill="white"/>
</clipPath>
</defs>
</svg>
