<svg width="3457" height="1166" viewBox="0 0 3457 1166" fill="none" xmlns="http://www.w3.org/2000/svg">
<path d="M358.583 51.8772C326.038 58.6037 302.693 87.2903 302.693 120.626C302.693 131.903 304.968 141.003 310.211 151.786C314.069 159.6 316.344 162.667 323.466 169.69C330.588 176.911 333.457 178.989 341.272 182.747C369.365 196.299 399.535 191.353 421.495 169.591C428.519 162.568 430.794 159.6 434.652 151.786C439.993 140.806 442.169 131.903 442.169 120.033C442.169 88.0817 419.22 59.2961 388.06 52.4707C380.543 50.7891 365.309 50.4923 358.583 51.8772Z" fill="white"/>
<path d="M136.509 121.121C135.124 121.517 129.782 123.495 124.638 125.572C119.495 127.551 112.372 129.727 108.811 130.222C105.349 130.815 100.898 132.101 99.0183 133.09C97.0399 134.079 94.8636 134.97 94.0723 134.97C93.2809 134.97 91.7971 135.761 90.8079 136.651C89.522 137.838 87.049 138.432 83.2901 138.531C75.7722 138.63 73.4971 140.113 70.7273 146.148C67.6608 153.072 65.3857 154.951 54.9991 159.106C50.251 160.985 44.9094 163.656 43.1288 164.942C40.6558 166.921 38.4796 167.415 31.9509 167.811C27.4996 168.009 23.246 168.8 22.4547 169.492C21.6633 170.086 20.4763 172.658 19.8828 175.032L18.7947 179.483H13.9476C10.1887 179.483 8.7049 179.978 6.6276 181.956C2.27514 186.408 0 192.541 0 200.157C0 209.06 3.16542 219.842 6.23192 221.029C9.89193 222.414 19.9817 233.098 24.7298 240.319C27.1039 244.177 29.379 247.441 29.7747 247.738C30.5661 248.43 37.985 261.389 39.8645 265.543C43.1288 272.764 51.4381 297 51.4381 299.374C51.4381 300.165 52.3283 303.726 53.4164 307.188C55.5927 314.113 56.6808 317.97 58.4613 325.389C60.143 332.907 65.5835 350.911 67.2651 355.065C67.7597 356.153 68.8479 360.11 69.7381 363.869C70.6284 367.628 71.8154 371.881 72.409 373.266C73.0025 374.651 74.1895 378.905 75.1787 382.763C76.9592 390.182 78.2452 393.446 86.8512 413.329C96.3474 435.388 102.48 442.807 125.628 460.513C143.037 473.867 145.411 476.637 157.48 496.915C166.086 511.457 168.163 517.194 171.229 533.615C174.197 550.035 174.098 550.728 166.679 562.994C163.217 568.83 158.469 576.348 156.194 579.513C149.764 588.713 149.566 589.801 153.622 597.121C159.755 608.2 166.283 621.949 165.591 622.543C165.294 622.84 156.49 623.334 146.104 623.631C128.199 624.126 126.914 624.225 123.847 626.401C118.505 630.259 110.889 642.92 107.426 653.604C104.953 661.023 105.547 678.334 108.811 696.337C109.306 699.008 110.196 705.24 110.79 710.186C112.273 721.759 117.219 748.863 119.692 759.151C120.187 761.03 121.572 766.57 122.759 771.515C123.847 776.363 125.726 782.199 126.716 784.474C127.705 786.65 128.595 788.727 128.595 789.123C128.595 789.519 130.672 794.366 133.145 799.905C135.717 805.544 138.487 812.27 139.476 815.04C140.367 817.711 143.928 824.437 147.291 829.878C155.106 842.54 157.282 849.563 157.974 863.708C158.568 875.776 157.381 884.877 154.314 890.713C153.325 892.593 151.544 896.154 150.456 898.627C148.973 901.891 146.104 904.958 139.971 909.904C135.322 913.564 127.903 920.785 123.55 925.929C113.757 937.205 110.097 940.173 97.9301 947.196C92.7863 950.065 87.3458 953.23 85.862 954.022C84.4771 954.813 80.2236 957.088 76.4646 959.067C69.0457 963.023 60.6376 971.333 58.3624 976.674C56.9775 980.037 57.0765 980.136 60.5386 983.104C63.9019 985.973 70.7273 989.138 85.5652 994.579C88.8296 995.766 92.4896 997.249 93.6766 997.843C95.655 998.733 125.825 998.239 136.014 997.15C139.773 996.755 156.095 989.435 162.92 985.082C170.636 980.037 174.692 979.048 196.355 976.278C203.18 975.388 207.83 973.707 217.128 968.662C226.525 963.617 229.493 959.858 229.493 953.131C229.493 942.547 227.514 932.358 222.964 919.4C220.491 912.08 218.315 904.463 218.216 902.584C218.018 898.33 216.93 893.483 215.051 888.24C212.083 880.03 211.391 867.863 210.995 819.491C210.797 792.585 210.302 768.548 209.808 766.075C208.126 757.865 206.544 752.721 204.17 747.478C201.301 741.246 201.202 739.96 203.576 740.653C211.391 743.225 215.644 744.708 218.612 745.895C223.162 747.775 232.164 756.48 241.165 767.559C249.376 777.55 255.014 782.199 270.445 791.003C276.282 794.465 283.997 799.411 287.558 801.983C291.021 804.653 298.044 809.006 303.188 811.677L312.585 816.524H330.885C341.272 816.524 351.164 816.029 353.834 815.337C362.737 813.259 374.608 808.412 380.147 804.851C383.115 802.873 389.346 799.015 393.897 796.443C403.393 791.003 416.055 781.902 418.923 778.341C421.297 775.472 431.783 770.724 439.004 769.141C441.972 768.548 453.941 768.053 466.8 768.053C481.144 768.053 490.541 767.658 492.717 766.965C494.597 766.273 499.444 763.503 503.499 760.733C512.897 754.304 515.37 753.215 521.008 753.215C530.109 753.215 545.54 759.447 549.299 764.591C552.464 768.944 564.73 791.497 566.907 797.037C568.292 800.499 568.786 804.258 568.786 811.083C568.786 822.954 570.863 828.592 576.007 830.274C577.986 830.966 579.766 832.153 580.063 832.944C581.052 835.417 580.755 860.147 579.766 863.412C578.085 869.05 575.414 891.109 574.622 905.551C574.227 913.465 573.139 924.346 572.248 929.786C571.358 935.227 570.171 942.151 569.775 945.119C568.489 952.835 567.896 954.813 559.092 980.829C550.981 1004.87 548.112 1012.38 547.024 1012.38C546.628 1012.38 544.155 1015.65 541.583 1019.51C538.913 1023.46 533.571 1030.29 529.713 1034.64C522.096 1043.05 519.92 1046.71 516.359 1056.7C512.402 1067.98 514.084 1073.71 521.206 1073.71C526.548 1073.71 534.758 1069.56 536.637 1065.8C538.22 1062.73 540.1 1062.64 540.1 1065.7C540.1 1066.59 540.594 1067.88 541.188 1068.47C542.474 1069.76 543.76 1074.51 545.54 1084.6C548.607 1101.02 551.574 1105.86 557.312 1103.29C560.972 1101.61 562.257 1096.66 561.466 1086.87C561.169 1082.42 561.169 1078.66 561.367 1078.66C562.257 1078.66 567.797 1090.83 567.797 1092.61C567.797 1094.39 577.788 1108.93 580.854 1111.5C583.723 1113.97 586.592 1112.29 586.592 1108.04V1104.87L589.559 1108.43C591.142 1110.41 593.813 1112.59 595.395 1113.28C599.154 1114.77 604.496 1113.88 606.87 1111.3C609.145 1108.83 608.354 1105.96 603.309 1097.36C601.232 1093.7 599.451 1090.33 599.451 1089.84C599.451 1089.44 602.32 1092.11 605.782 1095.77C611.223 1101.61 612.509 1102.5 614.487 1101.91C619.532 1100.32 620.521 1097.16 617.454 1092.41C616.564 1091.02 613.893 1087.07 611.618 1083.51C606.474 1075.69 601.726 1069.16 598.561 1065.9C595.198 1062.24 591.933 1056.3 589.262 1048.98C584.415 1036.22 584.91 1028.41 591.142 1013.47C593.12 1008.82 595.989 1001.6 597.473 997.546C598.957 993.49 601.133 987.852 602.419 985.181C606.573 975.784 607.167 974.3 610.134 965.397C617.652 943.042 623.489 923.554 624.181 918.015C624.676 914.652 625.665 908.024 626.555 903.177C627.544 897.737 628.138 888.735 628.138 879.535C628.138 863.708 628.533 862.225 635.062 849.959C636.744 846.793 637.04 844.419 637.04 831.56C637.04 817.909 637.238 816.029 640.008 807.126C641.986 800.697 642.976 795.355 642.976 790.904C643.075 783.188 644.657 772.703 648.812 753.215C652.769 735.014 652.274 736.399 657.912 726.507C662.463 718.495 662.76 717.703 662.76 710.779C662.76 704.25 662.364 702.767 659.198 697.029C655.637 690.797 655.637 690.501 656.231 682.587C656.923 673.486 658.11 665.969 659.891 658.846C661.177 653.999 663.452 651.131 672.058 643.811C675.52 640.843 675.619 640.447 675.619 634.117C675.619 629.467 675.026 626.401 673.641 623.631C672.355 621.158 671.662 617.795 671.662 614.333V608.892L684.621 597.714C700.25 584.36 705.592 580.403 709.845 579.612C714.395 578.821 726.958 570.314 732.597 564.28C736.652 559.927 752.776 537.373 752.776 535.989C752.776 535.791 754.656 531.636 757.03 526.888C761.58 517.59 761.58 516.996 760.393 495.036C759.997 487.122 756.832 478.22 751.886 470.801C747.731 464.569 735.663 455.963 721.122 448.841C713.802 445.181 706.185 441.323 704.306 440.136C697.777 436.08 684.126 432.816 672.651 432.717C666.914 432.618 661.77 432.618 661.276 432.618C659.693 432.717 658.011 438.256 657.319 445.576C656.429 455.073 654.846 462.59 653.263 465.063C651.779 467.438 638.92 476.538 633.084 479.407C626.357 482.671 623.192 487.221 623.192 493.453C623.192 495.234 622.302 497.905 621.114 499.29C619.037 502.059 611.223 504.928 605.881 504.928C601.924 504.928 599.451 507.599 599.451 511.654C599.451 514.029 599.055 514.82 597.572 514.82C595.297 514.82 590.351 513.138 584.119 510.368C581.448 509.083 576.304 507.302 572.941 506.412C569.479 505.521 565.917 504.433 565.027 503.939C561.763 502.356 550.387 498.201 545.837 497.014C542.77 496.223 534.164 491.178 521.206 482.572C510.226 475.252 500.927 469.317 500.433 469.317C500.037 469.317 496.179 465.459 491.926 460.81C487.672 456.161 480.352 448.445 475.703 443.697C471.054 439.048 465.218 432.519 462.844 429.354C460.469 426.089 457.205 421.836 455.524 419.758C448.006 410.262 443.455 404.327 441.774 401.557C439.202 397.699 439.598 391.764 442.862 382.367C444.543 377.322 445.137 374.255 444.642 371.98C444.247 370.299 443.752 365.946 443.455 362.286C442.961 355.758 442.961 355.659 439.598 354.571C435.74 353.285 435.047 352.394 434.256 347.646L433.761 344.184L423.177 343.689C413.977 343.294 412.296 342.898 410.317 340.92C407.152 338.051 403.492 338.15 399.733 341.315C396.765 343.788 396.667 344.184 396.667 351.405C396.568 356.549 396.172 359.615 395.183 360.901C394.391 361.99 393.699 364.067 393.699 365.65C393.699 368.914 398.843 385.334 402.305 393.149C405.371 400.172 406.46 405.217 407.548 417.384C408.537 428.167 409.031 431.431 411.01 442.609C414.175 459.623 418.132 470.999 423.869 479.605C428.617 486.727 438.608 498.004 441.873 499.982C443.455 500.872 446.225 503.345 448.105 505.423C449.984 507.5 452.853 510.27 454.435 511.753C462.448 518.876 463.734 520.755 464.13 526.987C464.525 532.724 464.822 533.219 469.471 537.275C472.142 539.649 474.912 541.825 475.802 542.122C478.572 543.111 485.694 552.805 489.552 560.817C495.487 572.984 495.586 573.38 490.343 576.941C487.969 578.623 483.518 583.074 480.352 586.932C474.813 593.856 469.075 597.912 464.921 597.912C463.833 597.912 461.953 598.407 460.667 599.099C459.48 599.693 457.799 600.484 457.007 600.88C456.216 601.176 454.435 603.649 453.051 606.122L450.578 610.772H442.763H434.948L429.804 616.212L424.76 621.653H415.659C405.47 621.653 400.821 623.235 394.985 628.874C390.83 632.732 382.917 633.721 377.278 631.05C371.541 628.379 364.419 630.358 357.494 636.59C352.845 640.843 351.559 641.437 347.899 641.437C344.041 641.437 343.349 640.942 337.513 634.611C332.962 629.566 329.698 626.994 325.049 624.719C319.411 622.048 314.563 617.894 314.563 615.619C314.563 615.124 312.981 612.651 311.002 610.079C309.024 607.507 305.661 601.77 303.583 597.417C301.506 593.065 298.637 588.02 297.253 586.141C295.868 584.261 294.78 581.788 294.78 580.502C294.78 577.04 289.735 564.675 283.997 554.388C279.744 546.672 278.656 543.803 278.062 538.165C277.271 531.043 276.974 530.449 269.753 525.503C267.379 523.822 261.147 513.534 259.663 508.885C259.268 507.5 255.706 502.158 251.75 497.014C247.793 491.871 241.165 482.275 236.912 475.747C232.757 469.218 228.504 463.184 227.613 462.393C223.756 458.733 213.369 450.621 206.247 445.576C196.652 438.85 195.86 438.157 187.947 427.375C179.736 416.197 180.429 417.384 171.229 396.611C166.184 385.236 162.623 378.113 158.766 371.881C154.611 365.155 148.181 351.405 142.444 337.26C136.707 322.916 120.682 298.187 117.022 298.187C116.626 298.187 115.736 297.197 115.142 295.911C114.648 294.724 111.185 287.899 107.624 280.876C104.063 273.753 98.9193 263.367 96.3474 257.63L91.5004 247.243V236.362C91.5004 226.668 91.8961 224.393 94.8636 215.787C97.8312 206.785 106.14 192.541 112.076 185.913C113.065 184.825 116.626 180.374 120.088 176.021C128.002 166.03 140.762 152.973 150.258 145.356C158.667 138.63 161.239 134.97 161.239 129.925C161.239 125.572 160.249 124.682 152.83 122.11C146.895 120.132 140.861 119.736 136.509 121.121Z" fill="white"/>
<path d="M1158.23 405.688C1176.31 405.688 1197.41 407.948 1221.51 412.468C1245.62 416.988 1263.25 421.809 1274.4 426.932V525.468H1224.22C1201.62 483.281 1170.89 462.188 1132.02 462.188C1116.35 462.188 1102.03 467.311 1089.08 477.556C1076.12 487.5 1065.87 501.361 1058.34 519.14C1050.81 536.919 1047.04 556.807 1047.04 578.804C1047.04 603.815 1050.81 626.716 1058.34 647.508C1065.87 667.999 1077.32 684.421 1092.69 696.776C1108.36 708.829 1127.65 714.856 1150.55 714.856C1178.57 714.856 1218.35 700.995 1269.88 673.272L1289.31 704.46L1206.14 769.096C1192.28 773.013 1179.02 775.575 1166.37 776.78C1153.71 778.287 1140 779.04 1125.24 779.04C1090.88 779.04 1060.3 771.356 1033.48 755.988C1006.96 740.62 986.321 719.527 971.556 692.708C956.791 665.588 949.408 634.852 949.408 600.5C949.408 565.244 960.407 532.7 982.404 502.868C1004.4 472.735 1031.82 449.08 1064.67 431.904C1097.51 414.427 1128.7 405.688 1158.23 405.688ZM1462.34 770H1314.08V741.072L1354.31 706.72V468.968L1314.08 442.3V413.372L1405.84 375.404H1437.93V723.896L1478.61 737.004L1462.34 770ZM1788.49 770H1680.91V733.388L1634.36 771.356C1626.22 773.767 1616.73 774.972 1605.88 774.972C1582.08 774.972 1563.09 768.795 1548.93 756.44C1534.77 743.784 1527.69 726.759 1527.69 705.364V611.8L1487.46 588.748V560.272L1579.67 520.496H1611.31V667.848C1611.31 681.408 1613.26 691.051 1617.18 696.776C1621.4 702.501 1628.63 705.364 1638.88 705.364C1652.74 705.364 1666.9 701.296 1681.37 693.16V611.8L1641.14 588.748V560.272L1732.89 520.496H1764.99V723.896L1805.21 737.004L1788.49 770ZM2018.39 520.948C2037.68 520.948 2055 526.221 2070.37 536.768C2085.74 547.013 2097.64 561.327 2106.08 579.708C2114.82 597.788 2119.19 617.827 2119.19 639.824C2119.19 663.629 2111.35 685.928 2095.68 706.72C2080.01 727.512 2060.28 744.085 2036.47 756.44C2012.97 768.493 1990.22 774.52 1968.22 774.52C1956.47 774.52 1945.32 772.26 1934.77 767.74C1924.53 763.22 1915.34 756.892 1907.2 748.756L1885.96 770H1854.32V468.968L1814.09 442.3V413.372L1905.84 375.404H1937.94V562.532L1985.4 524.564C1995.04 522.153 2006.04 520.948 2018.39 520.948ZM1994.44 718.02C2018.84 718.02 2031.05 699.036 2031.05 661.068C2031.05 638.769 2027.43 620.539 2020.2 606.376C2013.27 591.912 2002.87 584.68 1989.01 584.68C1970.63 584.68 1953.6 589.2 1937.94 598.24V671.464C1937.94 684.723 1942.76 695.872 1952.4 704.912C1962.34 713.651 1976.36 718.02 1994.44 718.02ZM2388.25 731.128L2449.27 633.948L2477.75 645.7V778.136L2442.49 770H2160.45V731.128L2376.05 453.6H2257.63L2202.48 541.74L2174.46 529.536V406.592L2209.26 414.728H2482.27V453.6L2266.21 731.128H2388.25ZM2675.74 520.948C2698.65 520.948 2719.14 526.221 2737.22 536.768C2755.3 547.013 2769.31 561.327 2779.25 579.708C2789.5 597.788 2794.62 617.827 2794.62 639.824C2794.62 663.629 2786.79 685.928 2771.12 706.72C2755.45 727.512 2735.71 744.085 2711.9 756.44C2688.4 768.493 2665.65 774.52 2643.65 774.52C2621.05 774.52 2600.71 769.397 2582.63 759.152C2564.55 748.605 2550.39 734.292 2540.14 716.212C2530.2 698.132 2525.23 677.943 2525.23 655.644C2525.23 631.537 2533.06 609.239 2548.73 588.748C2564.4 567.956 2583.99 551.533 2607.49 539.48C2631 527.125 2653.75 520.948 2675.74 520.948ZM2649.53 577.448C2638.68 577.448 2630.24 582.269 2624.22 591.912C2618.49 601.253 2615.63 615.265 2615.63 633.948C2615.63 658.356 2620.3 678.545 2629.64 694.516C2639.28 710.185 2652.69 718.02 2669.87 718.02C2681.02 718.02 2689.45 713.199 2695.18 703.556C2701.21 693.913 2704.22 679.751 2704.22 661.068C2704.22 636.66 2699.4 616.621 2689.76 600.952C2680.41 585.283 2667.01 577.448 2649.53 577.448ZM3138.64 769.548H3030.61V627.62C3030.61 614.06 3028.5 604.417 3024.28 598.692C3020.36 592.967 3013.43 590.104 3003.49 590.104C2989.33 590.104 2975.01 594.172 2960.55 602.308V723.444L3001.23 736.552L2984.96 769.548H2836.7V740.62L2876.93 706.268V611.348L2836.7 585.584V556.656L2936.14 516.88L2954.22 567.504L3007.56 524.564C3015.69 522.153 3025.19 520.948 3036.03 520.948C3059.84 520.948 3078.82 527.276 3092.99 539.932C3107.15 552.287 3114.23 569.161 3114.23 590.556V723.896L3154.91 736.552L3138.64 769.548ZM3330.35 520.948C3362.89 520.948 3388.06 533.303 3405.83 558.012C3423.91 582.42 3432.65 616.923 3432.05 661.52H3270.69C3274 677.491 3280.18 690.297 3289.22 699.94C3298.26 709.281 3310.01 713.952 3324.47 713.952C3345.87 713.952 3377.06 704.761 3418.04 686.38L3431.6 714.404L3366.51 766.836C3347.53 771.959 3324.78 774.52 3298.26 774.52C3275.66 774.52 3255.32 769.397 3237.24 759.152C3219.16 748.605 3205 734.292 3194.75 716.212C3184.81 698.132 3179.83 677.943 3179.83 655.644C3179.83 631.537 3187.67 609.239 3203.34 588.748C3219.01 567.956 3238.59 551.533 3262.1 539.48C3285.6 527.125 3308.35 520.948 3330.35 520.948ZM3305.94 577.448C3293.59 577.448 3284.25 581.667 3277.92 590.104C3271.89 598.24 3268.58 610.896 3267.97 628.072H3348.43C3346.62 610.896 3342.55 598.24 3336.23 590.104C3329.9 581.667 3319.8 577.448 3305.94 577.448Z" fill="white"/>
</svg>
